<svg width="62" height="62" viewBox="0 0 62 62" fill="none" xmlns="http://www.w3.org/2000/svg">
<foreignObject x="-23.5" y="-23.5" width="109" height="109"><div xmlns="http://www.w3.org/1999/xhtml" style="backdrop-filter:blur(12px);clip-path:url(#bgblur_0_402_25_clip_path);height:100%;width:100%"></div></foreignObject><path data-figma-bg-blur-radius="24" fill-rule="evenodd" clip-rule="evenodd" d="M4.18305 7.87025C1 12.2513 1 18.5009 1 31C1 43.4991 1 49.7487 4.18305 54.1298C5.21104 55.5447 6.45533 56.789 7.87025 57.817C12.2513 61 18.5009 61 31 61C43.4991 61 49.7487 61 54.1298 57.817C55.5447 56.789 56.789 55.5447 57.817 54.1298C61 49.7487 61 43.4991 61 31C61 18.5009 61 12.2513 57.817 7.87025C56.789 6.45533 55.5447 5.21104 54.1298 4.18305C49.7487 1 43.4991 1 31 1C18.5009 1 12.2513 1 7.87025 4.18305C6.45533 5.21104 5.21104 6.45533 4.18305 7.87025Z" fill="#28D03B" fill-opacity="0.35" stroke="url(#paint0_linear_402_25)" stroke-linecap="round"/>
<g filter="url(#filter1_d_402_25)">
<path fill-rule="evenodd" clip-rule="evenodd" d="M33.4998 17.6665C33.4998 16.2858 32.3805 15.1665 30.9998 15.1665C29.6191 15.1665 28.4998 16.2858 28.4998 17.6665V40.7872C28.4524 40.7503 28.4041 40.712 28.3548 40.6724C27.2794 39.8087 26.0009 38.5242 24.1016 36.6079L19.4421 31.9066C18.4702 30.926 16.8873 30.9189 15.9066 31.8909C14.926 32.8628 14.9189 34.4457 15.8909 35.4264L20.652 40.2302C22.4233 42.0174 23.9006 43.508 25.224 44.5709C26.612 45.6856 28.0709 46.5335 29.8482 46.7601C30.2305 46.8088 30.6152 46.8332 30.9998 46.8332C31.3845 46.8332 31.7691 46.8088 32.1515 46.7601C33.9288 46.5335 35.3876 45.6856 36.7757 44.5709C38.0991 43.5081 39.5764 42.0175 41.3476 40.2302L46.1088 35.4264C47.0808 34.4457 47.0737 32.8628 46.093 31.8909C45.1124 30.9189 43.5295 30.926 42.5575 31.9066L37.898 36.6079C35.9987 38.5242 34.7203 39.8087 33.6449 40.6724C33.5956 40.712 33.5472 40.7503 33.4998 40.7872V17.6665Z" fill="url(#paint1_linear_402_25)"/>
</g>
<defs>
<clipPath id="bgblur_0_402_25_clip_path" transform="translate(23.5 23.5)"><path fill-rule="evenodd" clip-rule="evenodd" d="M4.18305 7.87025C1 12.2513 1 18.5009 1 31C1 43.4991 1 49.7487 4.18305 54.1298C5.21104 55.5447 6.45533 56.789 7.87025 57.817C12.2513 61 18.5009 61 31 61C43.4991 61 49.7487 61 54.1298 57.817C55.5447 56.789 56.789 55.5447 57.817 54.1298C61 49.7487 61 43.4991 61 31C61 18.5009 61 12.2513 57.817 7.87025C56.789 6.45533 55.5447 5.21104 54.1298 4.18305C49.7487 1 43.4991 1 31 1C18.5009 1 12.2513 1 7.87025 4.18305C6.45533 5.21104 5.21104 6.45533 4.18305 7.87025Z"/>
</clipPath><filter id="filter1_d_402_25" x="12.1665" y="12.1665" width="47.6665" height="47.6665" filterUnits="userSpaceOnUse" color-interpolation-filters="sRGB">
<feFlood flood-opacity="0" result="BackgroundImageFix"/>
<feColorMatrix in="SourceAlpha" type="matrix" values="0 0 0 0 0 0 0 0 0 0 0 0 0 0 0 0 0 0 127 0" result="hardAlpha"/>
<feOffset dx="5" dy="5"/>
<feGaussianBlur stdDeviation="4"/>
<feColorMatrix type="matrix" values="0 0 0 0 0.176471 0 0 0 0 0.556863 0 0 0 0 0.678431 0 0 0 0.5 0"/>
<feBlend mode="normal" in2="BackgroundImageFix" result="effect1_dropShadow_402_25"/>
<feBlend mode="normal" in="SourceGraphic" in2="effect1_dropShadow_402_25" result="shape"/>
</filter>
<linearGradient id="paint0_linear_402_25" x1="1" y1="1" x2="61.0304" y2="60.9696" gradientUnits="userSpaceOnUse">
<stop stop-color="white" stop-opacity="0.25"/>
<stop offset="1" stop-color="white" stop-opacity="0"/>
</linearGradient>
<linearGradient id="paint1_linear_402_25" x1="31.2665" y1="53.5795" x2="74.9715" y2="10.7378" gradientUnits="userSpaceOnUse">
<stop stop-color="white"/>
<stop offset="1" stop-color="white" stop-opacity="0.2"/>
</linearGradient>
</defs>
</svg>
